# AST/ASF file generated using VICON BodyLanguage
# -----------------------------------------------
:version 1.10
:name VICON
:units
  mass 1.0
  length 0.45
  angle deg
:documentation
   .ast/.asf automatically generated from VICON data using
   VICON BodyBuilder and BodyLanguage model FoxedUp or BRILLIANT.MOD
:root
   order TX TY TZ RX RY RZ
   axis XYZ
   position 0 0 0  
   orientation 0 0 0 
:bonedata
  begin
     id 1 
     name lhipjoint
     direction 0.64773 -0.699417 0.302095 
     length 2.48597 
     axis 0 0 0  XYZ
  end
  begin
     id 2 
     name lfemur
     direction 0.34202 -0.939693 0  
     length 6.71947  
     axis 0 0 20  XYZ
    dof rx ry rz
    limits (-160.0 20.0)
           (-70.0 70.0)
           (-60.0 70.0)
  end
  begin
     id 3 
     name ltibia
     direction 0.34202 -0.939693 0   
     length 8.08777   
     axis 0 0 20   XYZ
    dof rx
    limits (-10.0 170.0)
  end
  begin
     id 4 
     name lfoot
     direction 0.0808503 -0.222134 0.971658   
     length 2.08264   
     axis -90 7.62852e-016 20   XYZ
    dof rx rz
    limits (-45.0 90.0)
           (-70.0 20.0)
  end
  begin
     id 5 
     name ltoes
     direction 1.53502e-011 -4.22007e-011 1   
     length 1.04662   
     axis -90 7.62852e-016 20   XYZ
    dof rx
    limits (-90.0 20.0)
  end
  begin
     id 6 
     name rhipjoint
     direction -0.610924 -0.726792 0.313919   
     length 2.39233  
     axis 0 0 0  XYZ 
  end
  begin
     id 7 
     name rfemur
     direction -0.34202 -0.939693 0   
     length 6.96955   
     axis 0 0 -20   XYZ
    dof rx ry rz
    limits (-160.0 20.0)
           (-70.0 70.0)
           (-70.0 60.0)
  end
  begin
     id 8 
     name rtibia
     direction -0.34202 -0.939693 0   
     length 8.19584   
     axis 0 0 -20   XYZ
    dof rx
    limits (-10.0 170.0)
 end
 begin
     id 9 
     name rfoot
     direction -0.077777 -0.213691 0.9738   
     length 2.07539  
     axis -90 -7.62852e-016 -20   XYZ
    dof rx rz
    limits (-45.0 90.0)
           (-20.0 70.0)
  end
  begin
     id 10 
     name rtoes
     direction -1.53558e-011 -4.22006e-011 1   
     length 1.04381   
     axis -90 -7.62852e-016 -20   XYZ
    dof rx
    limits (-90.0 20.0)
  end
  begin
     id 11 
     name lowerback
     direction -0.00971646 0.996074 0.0879841   
     length 1.67643   
     axis 0 0 0   XYZ
    dof rx ry rz
    limits (-20.0 45.0)
           (-30.0 30.0)
           (-30.0 30.0)
  end
  begin
     id 12 
     name upperback
     direction 0.0127391 0.991676 0.128127   
     length 1.63741   
     axis 0 0 0   XYZ
    dof rx ry rz
    limits (-20.0 45.0)
           (-30.0 30.0)
           (-30.0 30.0)
  end
  begin
     id 13 
     name thorax
     direction 0.0167583 0.996049 0.0872067   
     length 1.65931   
     axis 0 0 0   XYZ
    dof rx ry rz
    limits (-20.0 45.0)
           (-30.0 30.0)
           (-30.0 30.0)
  end
  begin
     id 14 
     name lowerneck
     direction -0.0317829 0.998312 0.0486079   
     length 1.79021   
     axis 0 0 0   XYZ
    dof rx ry rz
    limits (-20.0 45.0)
           (-30.0 30.0)
           (-30.0 30.0)
  end
  begin
     id 15 
     name upperneck
     direction 0.0896851 0.972452 -0.215159   
     length 1.78797   
     axis 0 0 0   XYZ
    dof rx ry rz
    limits (-20.0 45.0)
           (-30.0 30.0)
           (-30.0 30.0)
  end
  begin
     id 16
     name head
     direction 0.0310949 0.996503 -0.0775582  
     length 1.81549  
     axis 0 0 0   XYZ
    dof rx ry rz
    limits (-20.0 45.0)
           (-30.0 30.0)
           (-30.0 30.0)
  end
  begin
     id 17 
     name lclavicle
     direction 0.853638 0.502051 -0.138733  
     length 3.31627  
     axis 0 0 0   XYZ
    dof ry rz
    limits (-20.0 10.0)
           (0.0 20.0)
  end
  begin
     id 18 
     name lhumerus
     direction 1 -4.48962e-011 -1.41788e-018   
     length 5.54893   
     axis 180 -30 -90   XYZ
    dof rx ry rz
    limits (-60.0 90.0)
           (-90.0 90.0)
           (-90.0 90.0)
  end
  begin
     id 19
     name lradius
     direction 1 -4.48962e-011 -4.95754e-027   
     length 3.02898   
     axis 180 -30 -90   XYZ
    dof rx
    limits (-10.0 170.0)
  end
  begin
     id 20
     name lwrist
     direction 1 -4.48952e-011 -1.03764e-026   
     length 1.51449   
     axis 9.09556e-015 90 90   XYZ
    dof ry
    limits (-180.0 0.0)
 end
  begin
     id 21 
     name lhand
     direction 1 -4.4902e-011 -2.07528e-026   
     length 0.640951   
     axis 1.3242e-014 90 90   XYZ
    dof rx rz
    limits (-90.0 90.0)
           (-45.0 45.0)
  end
  begin
     id 22 
     name lfingers
     direction 1 -4.49014e-011 -4.15056e-026   
     length 0.516751   
     axis 2.64841e-014 90 90   XYZ
    dof rx
    limits (0.0 90.0)
  end
  begin
     id 23
     name lthumb
     direction 0.707107 -6.35008e-011 0.707107   
     length 0.741954   
     axis -90 45 2.85299e-015   XYZ
    dof rx rz
    limits (-45.0 45.0)
           (-45.0 45.0)
  end
  begin
     id 24 
     name rclavicle
     direction -0.888531 0.455324 -0.0565039   
     length 3.20126  
     axis 0 0 0   XYZ 
    dof ry rz
    limits (-10.0 20.0)
           (-20.0 0.0)
  end
  begin
     id 25 
     name rhumerus
     direction -1 -4.48946e-011 -8.98298e-028  
     length 5.3519   
     axis 180 30 90   XYZ
    dof rx ry rz
    limits (-90.0 60.0)
           (-90.0 90.0)
           (-90.0 90.0)
  end
  begin
     id 26 
     name rradius
     direction -1 -4.4899e-011 -3.18779e-027   
     length 3.02531   
     axis 180 30 90   XYZ
    dof rx
    limits (-10.0 170.0)
  end
  begin
     id 27 
     name rwrist
     direction -1 -4.4897e-011 -1.03764e-026   
     length 1.51266   
     axis 9.09556e-015 -90 -90   XYZ
    dof ry
    limits (-180.0 0.0)
  end
  begin
     id 28
     name rhand
     direction -1 -4.48941e-011 -2.07528e-026   
     length 0.78389   
     axis 1.3242e-014 -90 -90   XYZ
    dof rx rz
    limits (-90.0 90.0)
           (-45.0 45.0)
  end
  begin
     id 29
     name rfingers
     direction -1 -4.49012e-011 -4.15056e-026   
     length 0.631992   
     axis 2.64841e-014 -90 -90   XYZ
    dof rx
    limits (0.0 90.0)
  end
  begin
     id 30
     name rthumb
     direction -0.707107 -6.3496e-011 0.707107   
     length 0.907418   
     axis -90 -45 -2.85299e-015   XYZ
    dof rx rz
    limits (-45.0 45.0)
           (-45.0 45.0)
  end
:hierarchy
  begin
    root lhipjoint rhipjoint lowerback
    lhipjoint lfemur
    lfemur ltibia
    ltibia lfoot
    lfoot ltoes
    rhipjoint rfemur
    rfemur rtibia
    rtibia rfoot
    rfoot rtoes
    lowerback upperback
    upperback thorax
    thorax lowerneck lclavicle rclavicle
    lowerneck upperneck
    upperneck head
    lclavicle lhumerus
    lhumerus lradius
    lradius lwrist
    lwrist lhand lthumb
    lhand lfingers
    rclavicle rhumerus
    rhumerus rradius
    rradius rwrist
    rwrist rhand rthumb
    rhand rfingers
  end

#!OML:ASF E:\Style3\Style3.ASF
:FULLY-SPECIFIED
:DEGREES
536
root -2.76957 15.5007 -1.78191 -142.289 118.806 -181.751
lowerback 27.6841 -4.87877 1.60253
upperback 6.70827 -5.13835 2.26055
thorax -7.66731 -2.28985 3.27912
lowerneck 3.57903 -6.6906 -6.21933
upperneck -30.5289 -3.29239 26.2193
head -9.27768 -3.54308 11.1688
rclavicle 2.78299e-014 -4.57205e-014
rhumerus 13.9351 20.7097 -61.4803
rradius 137.806
rwrist -6.37061
rhand 9.79698 22.5678
rfingers 7.12502
rthumb 34.9338 -4.00373
lclavicle 2.78299e-014 -4.57205e-014
lhumerus 19.7195 -24.1089 50.247
lradius 138.219
lwrist 20.7058
lhand 26.0155 32.588
lfingers 7.12502
lthumb 50.0919 53.7623
rfemur -86.3087 -1.05102 8.48841
rtibia 55.2277
rfoot -11.3962 15.1072
rtoes -21.3133
lfemur -82.6705 3.39573 -28.1496
ltibia 66.8013
lfoot -21.6536 27.4173
ltoes -7.23234
537
root -2.73593 15.5991 -1.77091 -142.969 119.169 -181.742
lowerback 26.7368 -5.01383 1.45932
upperback 6.43063 -5.44029 2.02462
thorax -7.51253 -2.44857 3.13741
lowerneck 3.4304 -6.63774 -6.23801
upperneck -30.3721 -3.19495 26.3357
head -9.20536 -3.48405 11.1882
rclavicle 3.33958e-014 -2.62396e-014
rhumerus 13.3057 21.1742 -62.0262
rradius 137.743
rwrist -5.89527
rhand 10.1515 22.3446
rfingers 7.12502
rthumb 35.2701 -4.148
lclavicle 3.33958e-014 -2.62396e-014
lhumerus 18.7776 -24.7503 50.7045
lradius 138.156
lwrist 20.407
lhand 26.4337 32.8855
lfingers 7.12502
lthumb 50.4741 53.8557
rfemur -84.7363 -0.611229 8.30543
rtibia 54.1285
rfoot -11.1935 15.1371
rtoes -21.3287
lfemur -80.9979 4.05121 -28.5469
ltibia 65.6499
lfoot -21.7407 27.051
ltoes -6.9729
538
root -2.6906 15.6542 -1.74816 -143.591 119.512 -181.571
lowerback 25.8833 -5.119 1.27092
upperback 6.07531 -5.70461 1.84571
thorax -7.47655 -2.58747 3.08067
lowerneck 3.40007 -6.64361 -6.15939
upperneck -30.2993 -3.20383 26.2911
head -9.17671 -3.48222 11.1416
rclavicle -5.40694e-014 -4.05521e-014
rhumerus 12.3468 21.5378 -62.7111
rradius 137.626
rwrist -5.25163
rhand 10.524 22.7715
rfingers 7.12502
rthumb 35.6232 -3.63672
lclavicle -5.40694e-014 -4.05521e-014
lhumerus 17.6245 -25.5493 51.4283
lradius 138.134
lwrist 20.147
lhand 26.0308 33.0918
lfingers 7.12502
lthumb 50.1058 54.2588
rfemur -83.2553 -0.249869 8.07812
rtibia 53.214
rfoot -10.9986 15.2201
rtoes -21.5898
lfemur -79.3731 4.72637 -28.9895
ltibia 64.632
lfoot -21.7205 26.6545
ltoes -6.9437
539
root -2.65173 15.7621 -1.72547 -144.279 119.996 -181.407
lowerback 25.0855 -5.13853 0.908013
upperback 5.73655 -5.89841 1.65132
thorax -7.43106 -2.69027 3.08335
lowerneck 3.45346 -6.70538 -6.23986
upperneck -30.3539 -3.24817 26.4567
head -9.18701 -3.50916 11.2365
rclavicle -9.22361e-014 4.37326e-014
rhumerus 11.3863 22.0384 -63.2718
rradius 137.508
rwrist -4.79313
rhand 10.5348 22.8473
rfingers 7.12502
rthumb 35.6334 -3.55839
lclavicle -9.22361e-014 4.37326e-014
lhumerus 16.4413 -26.2236 52.0906
lradius 138.181
lwrist 20.1906
lhand 25.4585 33.3225
lfingers 7.12502
lthumb 49.5818 54.7621
rfemur -81.4783 0.337788 7.72368
rtibia 52.0414
rfoot -10.8044 15.1798
rtoes -21.4734
lfemur -77.4127 5.59336 -29.489
ltibia 63.2848
lfoot -21.6569 26.1976
ltoes -7.19591
540
root -2.60854 15.8736 -1.69633 -145.055 120.592 -181.353
lowerback 24.2072 -5.12728 0.498336
upperback 5.37933 -6.062 1.45508
thorax -7.3554 -2.77949 3.09242
lowerneck 3.66987 -6.69069 -6.29193
upperneck -30.5322 -3.18989 26.4657
head -9.30564 -3.48515 11.2882
rclavicle 4.6118e-014 2.46493e-014
rhumerus 10.4629 22.835 -63.7585
rradius 137.319
rwrist -4.65461
rhand 10.4175 22.8776
rfingers 7.12502
rthumb 35.5222 -3.55486
lclavicle 4.6118e-014 2.46493e-014
lhumerus 15.1734 -26.726 52.7464
lradius 138.179
lwrist 20.2664
lhand 25.5088 33.3957
lfingers 7.12502
lthumb 49.6279 54.8116
rfemur -79.6819 1.10168 7.34267
rtibia 50.8069
rfoot -10.5619 15.0742
rtoes -21.1533
lfemur -75.4244 6.61972 -29.9864
ltibia 61.9094
lfoot -21.6089 25.7108
ltoes -7.35329
541
root -2.56003 15.9896 -1.66579 -145.933 121.128 -181.356
lowerback 23.3398 -5.14005 0.216098
upperback 4.98739 -6.21765 1.26753
thorax -7.3296 -2.86548 3.03832
lowerneck 3.63694 -6.66421 -6.08385
upperneck -30.3252 -3.23775 26.1031
head -9.23867 -3.48187 11.065
rclavicle -2.22639e-014 6.36111e-015
rhumerus 9.43985 23.6199 -64.3066
rradius 137.109
rwrist -4.76374
rhand 10.379 22.8792
rfingers 7.12502
rthumb 35.4857 -3.562
lclavicle -2.22639e-014 6.36111e-015
lhumerus 13.653 -27.4522 53.6218
lradius 138.138
lwrist 19.942
lhand 25.3264 33.0206
lfingers 7.12502
lthumb 49.4607 54.522
rfemur -77.684 1.87864 7.01701
rtibia 49.3496
rfoot -10.3027 14.9252
rtoes -20.9985
lfemur -73.2894 7.6749 -30.4241
ltibia 60.4067
lfoot -21.5159 25.2621
ltoes -7.77123
542
root -2.51037 16.1049 -1.62823 -147.003 121.852 -181.497
lowerback 22.6231 -5.05274 -0.262157
upperback 4.56356 -6.27891 1.10737
thorax -7.39032 -2.89935 3.11081
lowerneck 3.39654 -6.67381 -5.92545
upperneck -29.8923 -3.36377 25.8363
head -9.02593 -3.50331 10.8509
rclavicle 2.70347e-014 -5.48646e-014
rhumerus 8.41689 24.5799 -64.8385
rradius 136.848
rwrist -5.07649
rhand 10.3513 22.6142
rfingers 7.12502
rthumb 35.4595 -3.8333
lclavicle 2.70347e-014 -5.48646e-014
lhumerus 11.9378 -28.0148 54.6206
lradius 138.106
lwrist 19.6151
lhand 25.1256 32.6752
lfingers 7.12502
lthumb 49.2765 54.2697
rfemur -75.6927 2.84942 6.72304
rtibia 47.9686
rfoot -10.0954 14.8396
rtoes -20.7397
lfemur -71.05 8.97954 -30.8266
ltibia 58.8086
lfoot -21.5477 24.7009
ltoes -7.99164
543
root -2.45973 16.2181 -1.5816 -148.367 122.996 -181.882
lowerback 21.9412 -4.86755 -0.987591
upperback 4.24154 -6.26637 0.836026
thorax -7.34246 -2.8939 3.17683
lowerneck 2.99786 -6.62827 -5.78708
upperneck -29.3538 -3.34751 25.8762
head -8.76253 -3.46949 10.7461
rclavicle 6.83819e-014 -3.18055e-015
rhumerus 7.57311 25.6819 -65.6487
rradius 136.493
rwrist -5.25708
rhand 10.3741 22.5109
rfingers 7.12502
rthumb 35.4811 -3.93138
lclavicle 6.83819e-014 -3.18055e-015
lhumerus 10.3628 -28.1732 55.1566
lradius 138.037
lwrist 19.4364
lhand 25.1824 32.583
lfingers 7.12502
lthumb 49.3286 54.1512
rfemur -73.6918 4.21055 6.45115
rtibia 46.5526
rfoot -9.94133 14.7514
rtoes -20.5997
lfemur -68.7294 10.7537 -31.2604
ltibia 57.1716
lfoot -21.6452 24.0439
ltoes -8.02086
544
root -2.37946 16.315 -1.57524 -147.054 121.592 -179.606
lowerback 20.4614 -6.10081 0.197824
upperback 3.88599 -7.68961 0.342949
thorax -7.106 -3.62245 2.24439
lowerneck 2.51206 -6.56686 -5.53809
upperneck -28.7316 -3.29544 25.9775
head -8.46609 -3.42534 10.633
rclavicle 4.77083e-015 -2.54444e-014
rhumerus 6.78405 26.7096 -66.8013
rradius 136.076
rwrist -5.15769
rhand 10.5109 22.3732
rfingers 7.12502
rthumb 35.6107 -4.03804
lclavicle 4.77083e-015 -2.54444e-014
lhumerus 8.97217 -28.3217 55.31
lradius 137.949
lwrist 19.343
lhand 25.1402 32.9354
lfingers 7.12502
lthumb 49.2899 54.5232
rfemur -71.4224 3.01865 5.70984
rtibia 45.3476
rfoot -10.2254 13.9973
rtoes -21.4693
lfemur -66.447 9.5895 -31.8279
ltibia 55.2851
lfoot -21.1497 23.5011
ltoes -8.19116
545
root -2.31096 16.4266 -1.53506 -147.628 121.952 -179.192
lowerback 19.6365 -6.25881 0.128497
upperback 3.35364 -7.98574 0.049115
thorax -7.27535 -3.77777 1.99556
lowerneck 2.31218 -6.53189 -5.52931
upperneck -27.9627 -3.38492 25.9466
head -8.14433 -3.42234 10.5163
rclavicle 6.67916e-014 3.33958e-014
rhumerus 5.49572 27.6884 -67.819
rradius 135.666
rwrist -4.96963
rhand 10.8054 22.1814
rfingers 7.12502
rthumb 35.8898 -4.1621
lclavicle 6.67916e-014 3.33958e-014
lhumerus 7.35256 -28.962 55.8596
lradius 137.819
lwrist 19.2951
lhand 24.9529 33.3986
lfingers 7.12502
lthumb 49.1179 55.0725
rfemur -69.3035 3.68682 5.24535
rtibia 44.0138
rfoot -10.28 13.6966
rtoes -22.0122
lfemur -64.0095 10.4674 -32.2431
ltibia 53.4177
lfoot -20.7409 23.0822
ltoes -8.81725
546
root -2.23665 16.5351 -1.49575 -148.015 122.21 -178.605
lowerback 18.9405 -6.23349 -0.147714
upperback 2.64506 -8.06103 0.0814754
thorax -7.62892 -3.81504 2.17482
lowerneck 2.23987 -6.59801 -5.78946
upperneck -27.2135 -3.72968 25.6203
head -7.80716 -3.50004 10.3472
rclavicle -7.31528e-014 9.54166e-015
rhumerus 4.05815 28.4321 -68.1528
rradius 135.253
rwrist -4.81983
rhand 11.0605 21.9783
rfingers 7.12502
rthumb 36.1315 -4.30576
lclavicle -7.31528e-014 9.54166e-015
lhumerus 5.77441 -29.9543 57.1337
lradius 137.528
lwrist 19.0671
lhand 24.0649 33.5287
lfingers 7.12502
lthumb 48.3013 55.5998
rfemur -67.2041 4.25245 4.72977
rtibia 42.729
rfoot -10.2693 13.3824
rtoes -21.953
lfemur -61.5373 11.2138 -32.672
ltibia 51.4217
lfoot -20.0619 22.7818
ltoes -10.1413
547
root -2.15679 16.6421 -1.4548 -148.283 122.43 -177.882
lowerback 18.1523 -6.17676 -0.48615
upperback 1.99807 -8.09455 0.167483
thorax -7.84547 -3.82973 2.41755
lowerneck 1.94151 -6.72997 -6.0957
upperneck -26.3459 -4.21251 25.1995
head -7.36866 -3.61828 10.1303
rclavicle 9.54166e-014 6.52014e-014
rhumerus 2.7413 29.0669 -68.4036
rradius 134.929
rwrist -4.65905
rhand 11.4411 21.5823
rfingers 7.12502
rthumb 36.4918 -4.6118
lclavicle 9.54166e-014 6.52014e-014
lhumerus 4.38318 -30.8838 58.5678
lradius 137.047
lwrist 18.8404
lhand 21.9504 33.6077
lfingers 7.12502
lthumb 46.3475 56.5561
rfemur -65.0103 4.74918 4.19573
rtibia 41.2878
rfoot -10.2792 12.9783
rtoes -22.2562
lfemur -58.9859 11.733 -33.0058
ltibia 49.3865
lfoot -19.574 22.5445
ltoes -10.9156
548
root -2.0746 16.7505 -1.40682 -148.772 122.561 -177.372
lowerback 17.2757 -6.25982 -0.647401
upperback 1.42429 -8.27556 0.161336
thorax -7.96315 -3.92203 2.48331
lowerneck 1.53802 -6.7702 -6.30875
upperneck -25.265 -4.5498 24.8876
head -6.87752 -3.67208 9.92021
rclavicle -7.79236e-014 3.57812e-014
rhumerus 1.58117 29.9544 -69.1665
rradius 134.497
rwrist -4.20323
rhand 11.6623 21.4334
rfingers 7.12502
rthumb 36.7012 -4.7077
lclavicle -7.79236e-014 3.57812e-014
lhumerus 2.944 -31.4331 59.6843
lradius 136.429
lwrist 18.8677
lhand 21.2885 33.5363
lfingers 7.12502
lthumb 45.7335 56.741
rfemur -62.717 5.36588 3.76759
rtibia 39.8162
rfoot -10.3472 12.4872
rtoes -22.9226
lfemur -56.2969 12.1284 -33.0507
ltibia 47.2503
lfoot -19.3654 22.243
ltoes -10.4095
549
root -1.99204 16.8561 -1.35413 -149.233 122.64 -176.847
lowerback 16.3243 -6.48606 -0.719287
upperback 0.882233 -8.63389 0.0252906
thorax -8.02772 -4.10528 2.3882
lowerneck 0.923038 -6.69768 -6.2765
upperneck -23.7905 -4.76226 24.5354
head -6.26918 -3.65751 9.61594
rclavicle -2.00375e-013 5.40694e-014
rhumerus 0.604579 30.9633 -70.1166
rradius 133.886
rwrist -3.78244
rhand 11.2544 21.628
rfingers 7.12502
rthumb 36.3151 -4.6105
lclavicle -2.00375e-013 5.40694e-014
lhumerus 1.50826 -31.7618 60.2978
lradius 135.694
lwrist 19.1261
lhand 22.4082 33.0534
lfingers 7.12502
lthumb 46.7715 55.8196
rfemur -60.4092 6.05312 3.32823
rtibia 38.3205
rfoot -10.4865 11.8547
rtoes -23.8864
lfemur -53.553 12.4539 -33.0373
ltibia 45.0263
lfoot -19.217 21.9257
ltoes -9.78311
550
root -1.90469 16.9595 -1.30173 -149.548 122.753 -176.224
lowerback 15.3428 -6.70814 -0.82164
upperback 0.273521 -8.99216 -0.110042
thorax -8.13978 -4.28625 2.30571
lowerneck 0.364084 -6.6126 -6.25117
upperneck -22.2104 -4.98695 24.1078
head -5.65333 -3.64169 9.29763
rclavicle -3.81667e-014 -3.81667e-014
rhumerus -0.412197 31.9636 -70.9972
rradius 133.055
rwrist -3.33908
rhand 10.8081 21.6249
rfingers 7.12502
rthumb 35.8924 -4.718
lclavicle -3.81667e-014 -3.81667e-014
lhumerus -0.00510514 -32.2705 60.9528
lradius 134.886
lwrist 19.5587
lhand 23.1637 32.2636
lfingers 7.12502
lthumb 47.4701 54.7199
rfemur -58.1556 6.79819 2.77693
rtibia 36.7712
rfoot -10.4423 11.2131
rtoes -24.1148
lfemur -50.8093 12.6765 -33.0663
ltibia 42.7162
lfoot -19.0603 21.6737
ltoes -8.67728
